 <svg  version="1.0" xmlns="http://www.w3.org/2000/svg"  width="300.000000pt" height="300.000000pt" viewBox="0 0 300.000000 300.000000"  preserveAspectRatio="xMidYMid meet">  <g transform="translate(0.000000,300.000000) scale(0.100000,-0.100000)" fill="#000000" stroke="none"> <path d="M2320 1843 c-1 -46 -30 -70 -91 -76 -30 -3 -71 -11 -92 -18 -39 -13 -124 -86 -113 -97 4 -3 21 8 39 25 41 38 105 63 164 63 49 0 153 -28 153 -42 0 -4 6 -8 13 -8 22 0 108 -91 128 -134 10 -23 24 -49 31 -58 22 -31 1 -30 -51 2 -75 47 -111 54 -168 35 -48 -17 -113 -13 -113 6 0 5 16 19 35 30 32 19 39 39 14 39 -6 0 -26 16 -44 36 -29 30 -39 35 -72 33 -37 -3 -83 -24 -83 -38 0 -4 21 -7 48 -7 31 -1 60 -9 85 -23 43 -26 44 -32 17 -49 -25 -15 -26 -38 -2 -50 25 -12 80 -14 100 -3 12 7 33 2 72 -16 48 -22 75 -28 155 -36 25 -3 32 40 15 97 -14 45 -87 127 -141 158 -32 18 -40 29 -49 70 -17 82 -50 121 -50 61z"/> <path d="M1950 1612 c-23 -7 -60 -44 -60 -60 0 -11 3 -12 14 -3 20 17 92 5 145 -25 24 -13 46 -23 48 -21 7 8 -15 52 -37 75 -18 19 -24 21 -37 11 -12 -10 -16 -10 -24 2 -5 8 -9 17 -9 20 0 7 -19 7 -40 1z"/> <path d="M2396 1611 c-7 -11 28 -48 54 -56 50 -16 34 31 -18 52 -17 7 -33 9 -36 4z"/> <path d="M1620 1316 c0 -279 0 -286 20 -286 19 0 20 7 20 108 0 121 11 172 46 220 32 42 69 59 121 57 87 -4 102 -38 100 -233 -2 -139 0 -152 16 -152 15 0 17 14 17 164 0 153 -1 165 -23 197 -32 48 -91 68 -154 51 -57 -16 -78 -33 -109 -92 l-24 -45 3 145 c2 131 0 145 -15 148 -17 3 -18 -15 -18 -282z"/> <path d="M766 1443 c-37 -6 -108 -78 -122 -124 -6 -20 -10 -65 -9 -101 4 -127 77 -202 193 -197 84 3 140 38 168 105 19 45 21 157 5 207 -28 83 -121 127 -235 110z m129 -38 c59 -25 90 -98 83 -197 -6 -79 -25 -113 -79 -141 -42 -22 -125 -19 -164 7 -94 62 -87 274 11 324 38 19 110 23 149 7z"/> <path d="M1347 1436 c-78 -29 -118 -93 -120 -190 -1 -75 5 -100 33 -148 52 -90 212 -105 287 -28 35 36 60 97 45 112 -13 13 -32 1 -32 -20 0 -31 -40 -83 -75 -98 -79 -33 -164 -7 -202 61 -30 54 -28 180 3 221 51 68 127 88 201 53 33 -16 45 -29 59 -65 18 -46 44 -60 44 -21 0 89 -141 161 -243 123z"/> <path d="M2105 1435 c-84 -33 -118 -90 -117 -204 1 -136 62 -205 184 -210 122 -5 191 70 192 209 1 88 -20 139 -74 182 -44 35 -126 45 -185 23z m152 -38 c95 -50 101 -253 11 -320 -38 -29 -123 -33 -167 -10 -108 56 -109 284 -1 332 47 21 115 20 157 -2z"/> <path d="M1040 1235 c0 -189 1 -205 18 -205 15 0 17 11 17 98 0 151 13 202 65 245 17 15 45 28 61 28 51 2 54 4 57 22 3 16 -2 17 -36 14 -59 -7 -99 -33 -124 -80 l-23 -42 -3 63 c-2 45 -7 62 -17 62 -12 0 -14 -35 -15 -205z"/> </g> </svg> 